<svg width="148" height="63" viewBox="0 0 148 63" fill="none" xmlns="http://www.w3.org/2000/svg">
<line x1="114.37" y1="61.551" x2="145.586" y2="30.3349" stroke="url(#paint0_linear_34_582)" stroke-opacity="0.75" stroke-width="4"/>
<line y1="-2" x2="44.1462" y2="-2" transform="matrix(-0.707107 -0.707107 -0.707107 0.707107 144.216 34.2161)" stroke="url(#paint1_linear_34_582)" stroke-opacity="0.75" stroke-width="4"/>
<line x1="58.3697" y1="61.5511" x2="89.5858" y2="30.335" stroke="url(#paint2_linear_34_582)" stroke-opacity="0.4" stroke-width="4"/>
<line y1="-2" x2="44.1462" y2="-2" transform="matrix(-0.707107 -0.707107 -0.707107 0.707107 88.2161 34.2161)" stroke="url(#paint3_linear_34_582)" stroke-opacity="0.4" stroke-width="4"/>
<line x1="2.36997" y1="61.5511" x2="33.5861" y2="30.335" stroke="url(#paint4_linear_34_582)" stroke-opacity="0.2" stroke-width="4"/>
<line y1="-2" x2="44.1462" y2="-2" transform="matrix(-0.707107 -0.707107 -0.707107 0.707107 32.2161 34.2161)" stroke="url(#paint5_linear_34_582)" stroke-opacity="0.2" stroke-width="4"/>
<defs>
<linearGradient id="paint0_linear_34_582" x1="114.816" y1="61.6836" x2="145.004" y2="30.7008" gradientUnits="userSpaceOnUse">
<stop stop-color="#35009A"/>
<stop offset="1" stop-color="#9C2AFF"/>
</linearGradient>
<linearGradient id="paint1_linear_34_582" x1="-0.00195841" y1="-1.76794" x2="43.7006" y2="-1.76793" gradientUnits="userSpaceOnUse">
<stop stop-color="#9C2AFF"/>
<stop offset="1" stop-color="#35009A"/>
</linearGradient>
<linearGradient id="paint2_linear_34_582" x1="58.8164" y1="61.6837" x2="89.0039" y2="30.7009" gradientUnits="userSpaceOnUse">
<stop stop-color="#35009A"/>
<stop offset="1" stop-color="#9C2AFF"/>
</linearGradient>
<linearGradient id="paint3_linear_34_582" x1="-0.00195841" y1="-1.76794" x2="43.7006" y2="-1.76793" gradientUnits="userSpaceOnUse">
<stop stop-color="#9C2AFF"/>
<stop offset="1" stop-color="#35009A"/>
</linearGradient>
<linearGradient id="paint4_linear_34_582" x1="2.81669" y1="61.6837" x2="33.0041" y2="30.7009" gradientUnits="userSpaceOnUse">
<stop stop-color="#35009A"/>
<stop offset="1" stop-color="#9C2AFF"/>
</linearGradient>
<linearGradient id="paint5_linear_34_582" x1="-0.00195841" y1="-1.76794" x2="43.7006" y2="-1.76793" gradientUnits="userSpaceOnUse">
<stop stop-color="#9C2AFF"/>
<stop offset="1" stop-color="#35009A"/>
</linearGradient>
</defs>
</svg>
